<?xml version="1.0" encoding="utf-8"?>
<!-- Generator: Adobe Illustrator 27.4.0, SVG Export Plug-In . SVG Version: 6.00 Build 0)  -->
<svg version="1.1" id="Calque_1" xmlns:svgjs="http://svgjs.com/svgjs"
	 xmlns="http://www.w3.org/2000/svg" xmlns:xlink="http://www.w3.org/1999/xlink" x="0px" y="0px" viewBox="0 0 512 512"
	 style="enable-background:new 0 0 512 512;" xml:space="preserve">
<style type="text/css">
	.st0{fill:#FFFFFF;}
	.st1{fill:#FD0707;}
	.st2{fill:#FF8300;}
	.st3{fill:#FFF233;}
	.st4{fill:none;}
	.st5{font-family:'SFProDisplay-Bold';}
	.st6{font-size:70px;}
</style>
<g>
	<path d="M68.7,16c-8.8,0-16,7.2-16,16v291.9c0,52.3,31,99.6,79,120.4l114.1,49.5c6.5,2.8,13.9,2.8,20.5,0l114.1-49.5
		c48-20.8,79-68.1,79-120.4V32c0-8.8-7.2-16-16-16H68.7z"/>
	<path class="st0" d="M259.2,468.9c-2,0.9-4.3,0.9-6.4,0l-110.9-48.1c-14.2-6.1-26.9-15.3-37.1-26.9c-17.4-19.6-26.5-45.3-26.5-71.5
		V49.7c0-4.4,3.6-8,8-8h339.3c4.4,0,8,3.6,8,8v272.7c0,26.2-9.1,51.9-26.5,71.5c-10.2,11.6-22.9,20.8-37.1,26.9L259.2,468.9z"/>
	<path class="st1" d="M256,500c-4.1,0-8.1-0.8-11.8-2.4L130.1,448c-17.7-7.7-33.6-19.1-46.5-33.4c-22.5-24.8-34.9-57.2-34.9-90.7V32
		c0-11,9-20,20-20h374.7c11,0,20,9,20,20v291.9c0,33.5-12.4,65.8-34.9,90.7c-12.9,14.4-28.8,25.7-46.5,33.4l-114.1,49.5
		C264.1,499.2,260.1,500,256,500z M68.7,20c-6.6,0-12,5.4-12,12v291.9c0,31.5,11.7,61.9,32.8,85.3c12.2,13.5,27.1,24.2,43.8,31.4
		l114.1,49.5c5.5,2.4,11.8,2.4,17.3,0l114.1-49.5c16.7-7.2,31.6-17.9,43.8-31.4c21.1-23.4,32.8-53.8,32.8-85.3V32
		c0-6.6-5.4-12-12-12H68.7z"/>
	<path class="st1" d="M256,473.6c-1.6,0-3.3-0.3-4.8-1l-110.9-48.1c-14.7-6.4-27.9-15.9-38.5-28c-17.7-20-27.5-46.4-27.5-74.1V49.7
		c0-6.6,5.4-12,12-12h339.3c6.6,0,12,5.4,12,12v272.7c0,27.8-9.8,54.1-27.5,74.2c-10.6,12-23.7,21.6-38.5,27.9l-110.9,48.1
		C259.3,473.3,257.6,473.6,256,473.6z M259.2,468.9L259.2,468.9L259.2,468.9z M86.4,45.7c-2.2,0-4,1.8-4,4v272.7
		c0,25.8,9,50.3,25.5,68.8c9.8,11.2,22,20,35.7,25.9l110.9,48.1c1,0.4,2.2,0.4,3.2,0l110.9-48.1c13.6-5.9,25.8-14.7,35.7-25.9
		c16.4-18.6,25.5-43,25.5-68.8V49.7c0-2.2-1.8-4-4-4H86.4z"/>
	<circle class="st0" cx="256" cy="167.6" r="108.8"/>
	<path class="st2" d="M147.2,167.7l31-22.5l-12.5-38.3c-11.7,17.3-18.5,38.2-18.5,60.7L147.2,167.7z M220.4,64.8L256,90.6l35.6-25.9
		c-11.5-4-23.5-6-35.6-6C243.9,58.8,231.9,60.8,220.4,64.8L220.4,64.8z M208.8,235.6l-38.8-1.4c12.4,16,29.2,28.4,48.6,35.5
		L208.8,235.6z M293.4,269.8c19.4-7.1,36.1-19.5,48.6-35.5l-38.8,1.4L293.4,269.8z M333.6,145.2l31.2,22.7l0,0
		c0.1-22.7-6.8-43.7-18.7-61.2L333.6,145.2z M256,125.1l-43.1,31.3l16.5,50.7h53.3l16.5-50.7L256,125.1z"/>
	<path class="st1" d="M282.6,211.1h-53.3c-1.7,0-3.3-1.1-3.8-2.8l-16.5-50.7c-0.5-1.6,0.1-3.5,1.5-4.5l43.1-31.3c1.4-1,3.3-1,4.7,0
		l43.1,31.3c1.4,1,2,2.8,1.5,4.5l-16.5,50.7C285.9,210,284.4,211.1,282.6,211.1L282.6,211.1z M232.3,203.1h47.5l14.7-45.2L256,130
		l-38.4,27.9L232.3,203.1z"/>
	<path class="st1" d="M256,280.4c-62.2,0-112.8-50.6-112.8-112.8c0-62.2,50.6-112.8,112.8-112.8s112.8,50.6,112.8,112.8
		S318.2,280.4,256,280.4z M256,62.8c-57.8,0-104.8,47-104.8,104.8c0,57.8,47,104.8,104.8,104.8s104.8-47,104.8-104.8
		C360.8,109.8,313.8,62.8,256,62.8z"/>
	<path class="st1" d="M364.2,171.4c-0.8,0-1.7-0.3-2.3-0.8l-30.6-22.2c-1.4-1-2-2.8-1.5-4.5l12.2-37.5c0.7-2.1,3-3.2,5.1-2.5
		c2,0.7,3.1,2.9,2.5,4.9l-11.3,34.7l28.2,20.5c1.8,1.3,2.2,3.8,0.9,5.6C366.7,170.8,365.5,171.4,364.2,171.4L364.2,171.4z"/>
	<path class="st1" d="M299.1,160.4c-2.2,0-4-1.8-4-4c0-1.7,1.1-3.3,2.8-3.8l34.5-11.2c2.1-0.7,4.4,0.5,5,2.6c0.7,2.1-0.5,4.4-2.6,5
		l0,0l-34.5,11.2C299.9,160.3,299.5,160.4,299.1,160.4z M293.6,273.2c-2.2,0-4-1.8-4-4c0-0.4,0.1-0.7,0.2-1.1l9.6-33.5
		c0.5-1.7,2-2.8,3.7-2.9l37.8-1.3c2.2,0,4.1,1.6,4.1,3.9c0.1,2.2-1.7,4.1-3.9,4.1l-34.9,1.2l-8.8,30.7
		C296.9,272,295.3,273.2,293.6,273.2L293.6,273.2z"/>
	<path class="st1" d="M303.2,239.6c-1.3,0-2.5-0.6-3.3-1.7l-20.5-28.6c-1.3-1.8-0.9-4.3,0.9-5.6s4.3-0.9,5.6,0.9c0,0,0,0,0,0.1
		l20.5,28.6c1.3,1.8,0.9,4.3-0.9,5.6C304.8,239.4,304,239.6,303.2,239.6L303.2,239.6z M208.9,239.7l-0.1,0l-1.6-0.1l-36.5-1.3
		c-2.2-0.1-3.9-1.9-3.9-4.1s1.9-3.9,4.1-3.9l36.6,1.3l1.5,0.1c2.2,0,4,1.9,3.9,4.1S211.1,239.7,208.9,239.7L208.9,239.7z"/>
	<path class="st1" d="M218,271.6c-1.8,0-3.4-1.2-3.8-2.9l-9.2-32c-0.3-1.2-0.1-2.4,0.6-3.4l20.5-28.6c1.3-1.8,3.8-2.2,5.6-0.9
		s2.2,3.8,0.9,5.6l0,0l-19.4,27l8.6,30.1c0.6,2.1-0.6,4.3-2.7,4.9C218.8,271.6,218.4,271.7,218,271.6L218,271.6z M148.1,171.1
		c-2.2,0-4-1.8-4-4c0-1.3,0.6-2.5,1.6-3.2l27.8-20.2l-11.2-34.6c-0.6-2.1,0.6-4.3,2.8-4.9c2-0.6,4.1,0.5,4.8,2.5L182,144
		c0.5,1.6-0.1,3.5-1.5,4.5l-30.1,21.9C149.7,170.8,148.9,171.1,148.1,171.1L148.1,171.1z"/>
	<path class="st1" d="M212.9,160.4c-0.4,0-0.8-0.1-1.2-0.2L176.9,149c-2.1-0.7-3.3-2.9-2.6-5s2.9-3.3,5-2.6l34.7,11.2
		c2.1,0.7,3.3,2.9,2.6,5C216.2,159.3,214.6,160.4,212.9,160.4z M256,94.6c-0.8,0-1.6-0.3-2.4-0.8l-35-25.4c-1.8-1.3-2.2-3.8-0.9-5.6
		s3.8-2.2,5.6-0.9L256,85.7L288.6,62c1.8-1.2,4.3-0.8,5.6,1c1.2,1.8,0.8,4.1-0.9,5.4l-34.9,25.4C257.7,94.4,256.8,94.6,256,94.6
		L256,94.6z"/>
	<path class="st1" d="M256,129.1c-2.2,0-4-1.8-4-4V90.6c0-2.2,1.8-4,4-4s4,1.8,4,4v34.5C260,127.3,258.2,129.1,256,129.1z"/>
	<path class="st3" d="M260.3,379.5l5.8,11.7c0.7,1.4,2.1,2.4,3.6,2.6l12.9,1.9c4,0.6,5.5,5.4,2.7,8.2l-9.3,9.1
		c-1.1,1.1-1.7,2.7-1.4,4.3l2.2,12.8c0.7,3.9-3.5,7-7,5.1l-11.5-6.1c-1.4-0.7-3.1-0.7-4.5,0l-11.5,6.1c-3.5,1.9-7.7-1.1-7-5.1
		l2.2-12.8c0.3-1.6-0.3-3.2-1.4-4.3l-9.3-9.1c-2.9-2.8-1.3-7.7,2.7-8.2l12.9-1.9c1.6-0.2,2.9-1.2,3.6-2.6l5.8-11.7
		C253.4,375.9,258.6,375.9,260.3,379.5z M336.2,374.1l4.1,8.4c0.5,1,1.5,1.7,2.6,1.9l9.2,1.3c2.8,0.4,4,3.9,1.9,5.9l-6.7,6.5
		c-0.8,0.8-1.2,1.9-1,3.1l1.6,9.2c0.5,2.8-2.5,5-5,3.7l-8.3-4.3c-1-0.5-2.2-0.5-3.2,0l-8.3,4.3c-2.5,1.3-5.5-0.8-5-3.7l1.6-9.2
		c0.2-1.1-0.2-2.3-1-3.1l-6.7-6.5c-2.1-2-0.9-5.5,1.9-5.9l9.2-1.3c1.1-0.2,2.1-0.9,2.6-1.9l4.1-8.4
		C331.3,371.6,335,371.6,336.2,374.1L336.2,374.1z M182.1,374.1l4.1,8.4c0.5,1,1.5,1.7,2.6,1.9l9.2,1.3c2.8,0.4,4,3.9,1.9,5.9
		l-6.7,6.5c-0.8,0.8-1.2,1.9-1,3.1l1.6,9.2c0.5,2.8-2.5,5-5,3.7l-8.3-4.3c-1-0.5-2.2-0.5-3.2,0l-8.3,4.3c-2.5,1.3-5.5-0.8-5-3.7
		l1.6-9.2c0.2-1.1-0.2-2.3-1-3.1l-6.7-6.5c-2.1-2-0.9-5.5,1.9-5.9l9.2-1.3c1.1-0.2,2.1-0.9,2.6-1.9l4.1-8.4
		C177.2,371.6,180.8,371.6,182.1,374.1z"/>
	<path d="M465,355.4H47c-5.9,0-10.7-4.8-10.7-10.7v-85.6c0-5.9,4.8-10.7,10.7-10.7H465c5.9,0,10.7,4.8,10.7,10.7v85.6
		C475.7,350.6,470.9,355.4,465,355.4L465,355.4z"/>
	<path class="st1" d="M465,359.4H47c-8.1,0-14.7-6.6-14.7-14.7v-85.6c0-8.1,6.6-14.7,14.7-14.7H465c8.1,0,14.7,6.6,14.7,14.7v85.6
		C479.7,352.8,473.1,359.4,465,359.4L465,359.4z M47,252.4c-3.7,0-6.7,3-6.7,6.7v85.6c0,3.7,3,6.7,6.7,6.7H465c3.7,0,6.7-3,6.7-6.7
		v-85.6c0-3.7-3-6.7-6.7-6.7L47,252.4z"/>
	<path class="st1" d="M272,439.8c-1.4,0-2.9-0.4-4.1-1l-11.5-6.1c-0.2-0.1-0.5-0.1-0.8,0l-11.5,6.1c-3,1.6-6.6,1.3-9.3-0.7
		s-4.1-5.3-3.5-8.6l2.2-12.8c0-0.3,0-0.5-0.2-0.7l-9.3-9.1c-2.4-2.3-3.3-5.9-2.2-9.1c1-3.2,3.8-5.5,7.1-6l12.9-1.9
		c0.3,0,0.5-0.2,0.6-0.5l5.8-11.7c1.5-3,4.5-4.9,7.9-4.9s6.4,1.9,7.9,4.9l5.8,11.7c0.1,0.2,0.4,0.4,0.6,0.5l12.9,1.9
		c3.3,0.5,6.1,2.8,7.1,6c1.1,3.2,0.2,6.7-2.2,9.1l-9.3,9.1c-0.2,0.2-0.3,0.5-0.2,0.7l2.2,12.8c0.6,3.3-0.8,6.7-3.5,8.6
		C275.7,439.2,273.9,439.8,272,439.8L272,439.8z M256,424.7c1.4,0,2.8,0.3,4.1,1l11.5,6.1c0.3,0.2,0.6,0.1,0.9-0.1s0.4-0.5,0.3-0.8
		l-2.2-12.8c-0.5-2.9,0.5-5.8,2.5-7.8l9.3-9.1c0.2-0.2,0.3-0.6,0.2-0.9c-0.1-0.3-0.4-0.5-0.7-0.6l-12.9-1.9
		c-2.9-0.4-5.4-2.2-6.7-4.8l-5.8-11.7c-0.2-0.4-0.7-0.6-1.1-0.4c-0.2,0.1-0.3,0.2-0.4,0.4l-5.8,11.7c-1.3,2.6-3.8,4.4-6.7,4.8
		l-12.9,1.9c-0.3,0-0.6,0.2-0.7,0.6s0,0.6,0.2,0.9l9.3,9.1c2.1,2,3,5,2.5,7.8l-2.2,12.8c-0.1,0.3,0.1,0.6,0.3,0.8s0.6,0.2,0.9,0.1
		l11.5-6.1C253.2,425,254.6,424.7,256,424.7z M321.6,418.5c-1.6,0-3.1-0.5-4.4-1.4c-2.3-1.7-3.5-4.5-3-7.3l1.5-8.9l-6.5-6.3
		c-2-2-2.8-4.9-1.9-7.7s3.2-4.7,6-5.1l9-1.3l4-8.1c1.2-2.6,3.8-4.2,6.7-4.2c2.8,0,5.4,1.6,6.7,4.2l4,8.1l9,1.3
		c2.8,0.4,5.1,2.4,6,5.1s0.2,5.7-1.9,7.7l-6.5,6.3l1.5,8.9c0.5,2.8-0.7,5.6-3,7.3c-2.3,1.7-5.3,1.9-7.9,0.6l-8-4.2l-8,4.2
		C324,418.2,322.8,418.5,321.6,418.5L321.6,418.5z M315.7,389.5l5.9,5.8c1.8,1.7,2.6,4.2,2.1,6.6l-1.4,8.1l7.3-3.8
		c2.2-1.1,4.8-1.1,6.9,0l7.3,3.8l-1.4-8.1c-0.4-2.4,0.4-4.9,2.1-6.6l5.9-5.8l-8.2-1.2c-2.4-0.4-4.5-1.9-5.6-4.1l-3.7-7.4l-3.7,7.4
		c-1.1,2.2-3.2,3.7-5.6,4.1L315.7,389.5z M343.9,380.7L343.9,380.7L343.9,380.7z M332.6,375.9C332.6,375.9,332.6,375.9,332.6,375.9z
		 M167.5,418.5c-1.6,0-3.1-0.5-4.4-1.4c-2.3-1.7-3.5-4.5-3-7.3l1.5-8.9l-6.5-6.3c-2.1-2-2.8-4.9-1.9-7.7s3.2-4.7,6-5.1l9-1.3l4-8.1
		c1.2-2.6,3.8-4.2,6.7-4.2c2.9,0,5.4,1.6,6.7,4.2l4,8.1l9,1.3c2.8,0.4,5.1,2.4,6,5.1s0.2,5.7-1.9,7.7l-6.5,6.3l1.5,8.9
		c0.5,2.8-0.7,5.6-3,7.3s-5.3,1.9-7.9,0.6l-8-4.2l-8,4.2C169.9,418.2,168.7,418.5,167.5,418.5L167.5,418.5z M179,405.4
		c1.2,0,2.4,0.3,3.5,0.9l7.3,3.8l-1.4-8.1c-0.4-2.4,0.4-4.9,2.1-6.6l5.9-5.8l-8.2-1.2c-2.4-0.4-4.5-1.9-5.6-4.1l-3.7-7.4l-3.7,7.4
		c-1.1,2.2-3.2,3.7-5.6,4.1l-8.2,1.2l5.9,5.8c1.8,1.7,2.6,4.2,2.1,6.6l-1.4,8.1l7.3-3.8C176.6,405.6,177.8,405.4,179,405.4
		L179,405.4z M197.5,389.7L197.5,389.7L197.5,389.7z"/>
	<rect x="108" y="276.9" class="st4" width="284" height="78"/>
	<text transform="matrix(1 0 0 1 179.6753 326.2111)" class="st0 st5 st6">M2L</text>
</g>
</svg>
